<?xml version="1.0" encoding="UTF-8" standalone="no"?>
<svg
   xmlns:dc="http://purl.org/dc/elements/1.1/"
   xmlns:cc="http://creativecommons.org/ns#"
   xmlns:rdf="http://www.w3.org/1999/02/22-rdf-syntax-ns#"
   xmlns:svg="http://www.w3.org/2000/svg"
   xmlns="http://www.w3.org/2000/svg"
   viewBox="0 0 960 353.38531"
   height="353.38531"
   width="960"
   xml:space="preserve"
   id="svg2"
   version="1.1"><metadata
     id="metadata8"><rdf:RDF><cc:Work
         rdf:about=""><dc:format>image/svg+xml</dc:format><dc:type
           rdf:resource="http://purl.org/dc/dcmitype/StillImage" /></cc:Work></rdf:RDF></metadata><defs
     id="defs6"><clipPath
       id="clipPath18"
       clipPathUnits="userSpaceOnUse"><path
         id="path16"
         d="M 0,265.039 H 720 V 0 H 0 Z" /></clipPath><clipPath
       id="clipPath74"
       clipPathUnits="userSpaceOnUse"><path
         style="clip-rule:evenodd"
         id="path72"
         d="m 0,-99.213 h 720 v 540 H 0 Z" /></clipPath><clipPath
       id="clipPath80"
       clipPathUnits="userSpaceOnUse"><path
         id="path78"
         d="M 0,265.039 H 720 V 0 H 0 Z" /></clipPath></defs><g
     transform="matrix(1.3333333,0,0,-1.3333333,0,353.38533)"
     id="g10"><g
       id="g12"><g
         clip-path="url(#clipPath18)"
         id="g14"><path
           id="path20"
           style="fill:#ffffff;fill-opacity:1;fill-rule:nonzero;stroke:none"
           d="M 0,0 H 720 V 265.039 H 0 Z" /></g></g><path
       id="path22"
       style="fill:#5096d7;fill-opacity:1;fill-rule:nonzero;stroke:none"
       d="m 102.03,161.637 h 120 v 30.36 h -120 z" /><path
       id="path24"
       style="fill:none;stroke:#231f20;stroke-width:1.5;stroke-linecap:butt;stroke-linejoin:miter;stroke-miterlimit:10;stroke-dasharray:none;stroke-opacity:1"
       d="m 102.03,161.637 h 120 v 30.36 h -120 z" /><path
       id="path26"
       style="fill:#5096d7;fill-opacity:1;fill-rule:nonzero;stroke:none"
       d="m 324.03,140.757 h 120 v 72 h -120 z" /><path
       id="path28"
       style="fill:none;stroke:#231f20;stroke-width:1.5;stroke-linecap:butt;stroke-linejoin:miter;stroke-miterlimit:10;stroke-dasharray:none;stroke-opacity:1"
       d="m 324.03,140.757 h 120 v 72 h -120 z" /><path
       id="path30"
       style="fill:#5096d7;fill-opacity:1;fill-rule:nonzero;stroke:none"
       d="m 534.03,140.757 h 120 v 72 h -120 z" /><path
       id="path32"
       style="fill:none;stroke:#231f20;stroke-width:1.5;stroke-linecap:butt;stroke-linejoin:miter;stroke-miterlimit:10;stroke-dasharray:none;stroke-opacity:1"
       d="m 534.03,140.757 h 120 v 72 h -120 z" /><path
       id="path34"
       style="fill:#5096d7;fill-opacity:1;fill-rule:nonzero;stroke:none"
       d="m 450.03,14.757 h 120 v 72 h -120 z" /><path
       id="path36"
       style="fill:none;stroke:#231f20;stroke-width:1.5;stroke-linecap:butt;stroke-linejoin:miter;stroke-miterlimit:10;stroke-dasharray:none;stroke-opacity:1"
       d="m 450.03,14.757 h 120 v 72 h -120 z" /><path
       id="path38"
       style="fill:#5096d7;fill-opacity:1;fill-rule:nonzero;stroke:none"
       d="m 210.03,14.757 h 120 v 72 h -120 z" /><path
       id="path40"
       style="fill:none;stroke:#231f20;stroke-width:1.5;stroke-linecap:butt;stroke-linejoin:miter;stroke-miterlimit:10;stroke-dasharray:none;stroke-opacity:1"
       d="m 210.03,14.757 h 120 v 72 h -120 z" /><path
       id="path42"
       style="fill:#231f20;fill-opacity:1;fill-rule:nonzero;stroke:none"
       d="m 0.029999,179.247 h 97.319 v -4.98 h -97.319 z m 88.678001,5.85 13.342,-8.34 -13.342,-8.34 c -1.166,-0.73 -2.702,-0.37 -3.431,0.8 -0.729,1.16 -0.374,2.7 0.792,3.43 l 9.96,6.22 v -4.22 l -9.96,6.22 c -1.166,0.73 -1.521,2.27 -0.792,3.43 0.729,1.17 2.265,1.53 3.431,0.8" /><path
       id="path44"
       style="fill:#231f20;fill-opacity:1;fill-rule:nonzero;stroke:none"
       d="m 222.03,179.247 h 97.32 v -4.98 h -97.32 z m 88.68,5.85 13.34,-8.34 -13.34,-8.34 c -1.17,-0.73 -2.7,-0.37 -3.43,0.8 -0.73,1.16 -0.38,2.7 0.79,3.43 l 9.96,6.22 v -4.22 l -9.96,6.22 c -1.17,0.73 -1.52,2.27 -0.79,3.43 0.73,1.17 2.26,1.53 3.43,0.8" /><path
       id="path46"
       style="fill:#231f20;fill-opacity:1;fill-rule:nonzero;stroke:none"
       d="m 444.03,179.247 h 85.32 v -4.98 h -85.32 z m 76.68,5.85 13.34,-8.34 -13.34,-8.34 c -1.17,-0.73 -2.7,-0.37 -3.43,0.8 -0.73,1.16 -0.38,2.7 0.79,3.43 l 9.96,6.22 v -4.22 l -9.96,6.22 c -1.17,0.73 -1.52,2.27 -0.79,3.43 0.73,1.17 2.26,1.53 3.43,0.8" /><g
       transform="translate(642.03,140.757)"
       id="g48"><path
         id="path50"
         style="fill:none;stroke:#231f20;stroke-width:4.98000002;stroke-linecap:butt;stroke-linejoin:round;stroke-miterlimit:10;stroke-dasharray:none;stroke-opacity:1"
         d="M 0,0 V -90" /></g><path
       id="path52"
       style="fill:#231f20;fill-opacity:1;fill-rule:nonzero;stroke:none"
       d="m 642.03,53.247 h -67.32 v -4.98 h 67.32 z m -58.68,5.85 -13.34,-8.34 13.34,-8.34 c 1.17,-0.73 2.7,-0.37 3.43,0.8 0.73,1.16 0.38,2.7 -0.79,3.43 l -9.96,6.22 v -4.22 l 9.96,6.22 c 1.17,0.73 1.52,2.27 0.79,3.43 -0.73,1.17 -2.26,1.53 -3.43,0.8" /><path
       id="path54"
       style="fill:#231f20;fill-opacity:1;fill-rule:nonzero;stroke:none"
       d="M 450.03,53.247 H 334.71 v -4.98 h 115.32 z m -106.68,5.85 -13.34,-8.34 13.34,-8.34 c 1.17,-0.73 2.7,-0.37 3.43,0.8 0.73,1.16 0.38,2.7 -0.79,3.43 l -9.96,6.22 v -4.22 l 9.96,6.22 c 1.17,0.73 1.52,2.27 0.79,3.43 -0.73,1.17 -2.26,1.53 -3.43,0.8" /><path
       id="path56"
       style="fill:#231f20;fill-opacity:1;fill-rule:nonzero;stroke:none"
       d="m 210.03,53.247 h -85.32 v -4.98 h 85.32 z m -76.68,5.85 -13.34,-8.34 13.34,-8.34 c 1.17,-0.73 2.7,-0.37 3.43,0.8 0.73,1.16 0.38,2.7 -0.79,3.43 l -9.96,6.22 v -4.22 l 9.96,6.22 c 1.17,0.73 1.52,2.27 0.79,3.43 -0.73,1.17 -2.26,1.53 -3.43,0.8" /><text
       id="text66"
       style="font-variant:normal;font-weight:normal;font-size:18px;font-family:Tahoma;-inkscape-font-specification:Tahoma;writing-mode:lr-tb;fill:#231f20;fill-opacity:1;fill-rule:nonzero;stroke:none"
       transform="matrix(1,0,0,-1,17.98,200.6674)"><tspan
         id="tspan58"
         y="0"
         x="0 8.0262003 17.798401 27.840599 34.189201 42.485401">source</tspan><tspan
         id="tspan60"
         y="-38.6208"
         x="219.6396 229.5522 235.8828 245.3454 255.29401 261.66061 271.4346 279.7272 289.18979 297.2124 305.23499 314.6976">Preprocessed</tspan><tspan
         id="tspan62"
         y="-6.2207999"
         x="219.6396 229.67101 239.45039 249.4998 255.8286 264.13199">Source</tspan><tspan
         id="tspan64"
         y="15.3792"
         x="441.65881 452.43359 462.43439">ASM</tspan></text>
<g
       id="g68"><g
         clip-path="url(#clipPath74)"
         id="g70"><g
           clip-path="url(#clipPath80)"
           id="g76"><text
             id="text84"
             style="font-variant:normal;font-weight:normal;font-size:18px;font-family:Tahoma;-inkscape-font-specification:Tahoma;writing-mode:lr-tb;fill:#231f20;fill-opacity:1;fill-rule:nonzero;stroke:none"
             transform="matrix(1,0,0,-1,646.56,25.3474)"><tspan
               id="tspan82"
               y="0"
               x="0 12.7494 23.3568 30.8682 40.9716 51.794998">OBJECT</tspan></text>
</g></g></g><text
       id="text90"
       style="font-variant:normal;font-weight:normal;font-size:18px;font-family:Tahoma;-inkscape-font-specification:Tahoma;writing-mode:lr-tb;fill:#231f20;fill-opacity:1;fill-rule:nonzero;stroke:none"
       transform="matrix(1,0,0,-1,468.02,152.6474)"><tspan
         id="tspan86"
         y="0"
         x="0 5.4647999">.s</tspan><tspan
         id="tspan88"
         y="129.3804"
         x="135.6192 141.084">.o</tspan></text>
<text
       id="text94"
       style="font-variant:normal;font-weight:normal;font-size:19.97999954px;font-family:Tahoma;-inkscape-font-specification:Tahoma;writing-mode:lr-tb;fill:#231f20;fill-opacity:1;fill-rule:nonzero;stroke:none"
       transform="matrix(1,0,0,-1,105.6,165.2474)"><tspan
         id="tspan92"
         y="0"
         x="0 11.000988 18.185797 28.687284 39.728233 46.773178 57.622318 66.825111 77.326599 86.229683 95.132774 105.97392">Preprocessor</tspan></text>
<text
       id="text110"
       style="font-variant:normal;font-weight:normal;font-size:18px;font-family:Tahoma;-inkscape-font-specification:Tahoma;writing-mode:lr-tb;fill:#231f20;fill-opacity:1;fill-rule:nonzero;stroke:none"
       transform="matrix(1,0,0,-1,333.62,173.2874)"><tspan
         id="tspan96"
         y="0"
         x="0 10.8216 20.599199 35.722801 45.680401 49.806 53.931599 63.403198 204.039 214.84621 222.87781 230.90939 240.381 255.50459 265.46219 269.5878 279.05939">CompilerAssembler</tspan><tspan
         id="tspan98"
         y="132.0192"
         x="144.01981 152.9874 157.11301 167.1606 175.89059 185.3622 -108 -99.036003 -89.262001 -79.811996 -69.858002 -60.389999">LinkerLoader</tspan><tspan
         id="tspan100"
         y="96.019203"
         x="0 10.0908 18.764999 28.2258 36.516602 46.553398 52.558201 62.000999 71.9478 76.062599">Executable</tspan><tspan
         id="tspan102"
         y="152.64"
         x="26.3808 35.8344 41.292 51.069599 61.117199">a.out</tspan><tspan
         id="tspan104"
         y="84.020401"
         x="-306.01981 -295.92899 -287.25479 -277.79401 -269.5032 -259.4664 -253.46159 -244.0188 -234.07201 -229.9572">Executable</tspan><tspan
         id="tspan106"
         y="116.4204"
         x="-306.01981 -296.10361 -289.77481 -280.00259 -270.05042 -263.8638 -254.412">Program</tspan><tspan
         id="tspan108"
         y="148.8204"
         x="-306.01981 -299.41379 -289.36261 -283.7196 -269.84161 -260.3736 -245.2536 -235.4796 -228.9996">In Memory</tspan></text>
</g></svg>