<?xml version="1.0" encoding="UTF-8" standalone="no"?>
<svg version="1.0" xmlns="http://www.w3.org/2000/svg" width="30.000000pt" height="30.000000pt" viewBox="0 0 30.000000 30.000000" preserveAspectRatio="xMidYMid meet">
<g transform="translate(0.000000,30.000000) scale(0.010000,-0.010000)" fill="#F64960" stroke="none">
<path d="M1982 2924 c-142 -31 -285 -105 -448 -233 -144 -113 -133 -106 -140
-85 -33 107 -78 121 -122 40 -19 -37 -23 -189 -5 -221 11 -19 6 -21 -80 -38
-540 -106 -960 -495 -1042 -964 -95 -543 264 -1067 865 -1263 183 -60 277 -74
490 -74 208 0 293 12 475 69 202 63 387 171 536 313 174 165 276 339 331 559
32 132 30 332 -6 468 -110 422 -471 753 -953 875 -131 33 -304 53 -419 48
l-80 -3 10 43 c8 38 13 43 31 38 43 -11 161 -24 229 -26 39 0 72 -3 75 -5 4
-2 119 0 256 5 179 6 267 13 310 24 121 34 295 162 295 218 0 83 -318 230
-490 227 -30 -1 -83 -7 -118 -15z m589 -1130 c76 -73 25 -204 -79 -204 -47 0
-102 52 -108 105 -6 46 23 100 66 123 35 18 88 7 121 -24z m34 -348 c43 -46
60 -111 59 -226 -1 -111 -19 -180 -76 -295 -133 -268 -388 -465 -608 -469
-126 -2 -210 34 -210 91 0 36 65 97 170 158 316 183 424 309 524 612 35 105
69 163 97 163 6 0 26 -15 44 -34z" id="node1" class="node"></path>
</g>
</svg>
